<?xml version="1.0" encoding="utf-8"?>
<!-- Generator: Adobe Illustrator 28.1.0, SVG Export Plug-In . SVG Version: 6.00 Build 0)  -->
<svg version="1.1" id="Layer_1" xmlns="http://www.w3.org/2000/svg" xmlns:xlink="http://www.w3.org/1999/xlink" x="0px" y="0px"
	 viewBox="0 0 30 30" style="enable-background:new 0 0 30 30;" xml:space="preserve">
<style type="text/css">
	.st0{fill:#FFFFFF;}
</style>
<path class="st0" d="M14.7,11.1h4.6V7.2c0-0.8-0.3-1.5-0.8-2c-0.5-0.5-1.2-0.8-2-0.8H8c-0.8,0-1.5,0.3-2,0.8h0
	c-0.5,0.5-0.8,1.2-0.8,2v8.5c0,0.8,0.3,1.5,0.8,2h0h0c0.5,0.5,1.2,0.8,2,0.8h3.1v-3.9c0-1,0.4-1.9,1-2.5
	C12.8,11.5,13.7,11.1,14.7,11.1L14.7,11.1z M20,11.1h3.1c1,0,1.9,0.4,2.5,1c0.6,0.6,1,1.5,1,2.5v8.5c0,1-0.4,1.9-1,2.5
	c-0.6,0.6-1.5,1-2.5,1h-8.5c-1,0-1.9-0.4-2.5-1c-0.6-0.6-1-1.5-1-2.5v-3.9H8c-1,0-1.9-0.4-2.5-1c-0.6-0.6-1-1.5-1-2.5V7.2
	c0-1,0.4-1.9,1-2.5c0.6-0.6,1.5-1,2.5-1h8.5c1,0,1.9,0.4,2.5,1c0.6,0.6,1,1.5,1,2.5L20,11.1z M23.1,11.8h-8.5c-0.8,0-1.5,0.3-2,0.8
	c-0.5,0.5-0.8,1.2-0.8,2v8.5c0,0.8,0.3,1.5,0.8,2c0.5,0.5,1.2,0.8,2,0.8h8.5c0.8,0,1.5-0.3,2-0.8h0c0.5-0.5,0.8-1.2,0.8-2v-8.5
	c0-0.8-0.3-1.5-0.8-2C24.6,12.1,23.9,11.8,23.1,11.8L23.1,11.8z"/>
</svg>
